<svg width="448" height="71" viewBox="0 0 448 71" fill="none" xmlns="http://www.w3.org/2000/svg">
<g clip-path="url(#clip0)">
<path fill-rule="evenodd" clip-rule="evenodd" d="M418.567 11.8593C417.242 11.8982 415.984 12.4459 415.052 13.3886C414.121 14.3313 413.588 15.5967 413.565 16.9219C413.541 18.2472 414.029 19.5306 414.927 20.5057C415.824 21.4807 417.062 22.0726 418.385 22.1582H431.233C433.465 22.1531 435.677 22.588 437.742 23.438C439.806 24.2881 441.683 25.5366 443.266 27.1124C444.848 28.6882 446.105 30.5604 446.964 32.622C447.823 34.6837 448.268 36.8944 448.273 39.128C448.278 41.3616 447.843 43.5744 446.994 45.64C446.144 47.7055 444.896 49.5835 443.321 51.1665C441.746 52.7495 439.875 54.0067 437.814 54.8662C435.753 55.7257 433.543 56.1707 431.311 56.1758H405.53C405.183 56.1651 404.849 56.043 404.578 55.8275C404.306 55.612 404.111 55.3146 404.022 54.9795L400.279 45.8249C400.199 45.6699 400.159 45.497 400.163 45.3225C400.168 45.148 400.217 44.9775 400.305 44.8269C400.393 44.6763 400.518 44.5505 400.668 44.4613C400.818 44.372 400.988 44.3222 401.163 44.3165H431.317C432.682 44.3165 433.992 43.7739 434.957 42.8082C435.922 41.8425 436.464 40.5327 436.464 39.167C436.464 37.8013 435.922 36.4915 434.957 35.5258C433.992 34.5601 432.682 34.0176 431.317 34.0176H418.605C414.097 34.0176 409.772 32.2256 406.584 29.0358C403.396 25.8461 401.604 21.5198 401.604 17.0088C401.604 12.4978 403.396 8.17153 406.584 4.98176C409.772 1.792 414.097 0 418.605 0H445.251C446.07 0 446.733 0.53965 446.453 1.19633L442.398 10.663C442.284 10.9848 442.081 11.2678 441.813 11.4794C441.545 11.691 441.223 11.8227 440.884 11.8593H418.579H418.567Z" fill="white"/>
<path fill-rule="evenodd" clip-rule="evenodd" d="M239.289 22.1581L225.121 54.3032C224.653 55.337 224.406 56.1692 223.379 56.1692H214.021C212.676 56.1692 211.935 55.7986 212.591 54.3032L235.474 1.67085C235.942 0.793103 236.234 0.149414 237.261 0.149414H241.316C242.343 0.149414 242.616 0.799605 243.104 1.67085L265.986 54.3032C266.636 55.7986 265.895 56.1692 264.556 56.1692H255.198C254.165 56.1692 253.898 55.337 253.456 54.3032L239.289 22.1581Z" fill="white"/>
<path fill-rule="evenodd" clip-rule="evenodd" d="M309.288 56.1758C308.97 56.1758 308.666 56.0498 308.442 55.8254C308.218 55.6011 308.092 55.2968 308.092 54.9795V1.19633C308.092 0.879046 308.218 0.574757 308.442 0.3504C308.666 0.126043 308.97 1.28561e-10 309.288 1.28561e-10H318.743C319.061 -4.64402e-06 319.366 0.125831 319.591 0.350003C319.817 0.574175 319.944 0.87845 319.946 1.19633V44.3165H343.992C344.167 44.3194 344.339 44.3673 344.491 44.4557C344.643 44.544 344.77 44.6699 344.859 44.8213C344.948 44.9726 344.997 45.1444 345.001 45.3201C345.005 45.4958 344.964 45.6696 344.882 45.8249L340.983 54.9795C340.874 55.3348 340.652 55.6445 340.35 55.8607C340.048 56.077 339.684 56.1877 339.312 56.1758H309.288Z" fill="white"/>
<path fill-rule="evenodd" clip-rule="evenodd" d="M275.65 11.8593H260.605C260.288 11.8593 259.984 11.7333 259.759 11.5089C259.535 11.2846 259.409 10.9803 259.409 10.663V1.19633C259.409 0.879046 259.535 0.574757 259.759 0.3504C259.984 0.126043 260.288 1.28561e-10 260.605 1.28561e-10H302.523C302.841 -4.64402e-06 303.145 0.125831 303.371 0.350003C303.596 0.574175 303.723 0.87845 303.725 1.19633V10.663C303.723 10.9809 303.596 11.2852 303.371 11.5093C303.145 11.7335 302.841 11.8593 302.523 11.8593H287.504V54.9795C287.502 55.2974 287.375 55.6017 287.149 55.8258C286.924 56.05 286.619 56.1758 286.302 56.1758H276.852C276.535 56.1758 276.231 56.0498 276.007 55.8254C275.782 55.6011 275.656 55.2968 275.656 54.9795V11.8593H275.65Z" fill="white"/>
<path fill-rule="evenodd" clip-rule="evenodd" d="M372.444 22.1581L358.276 54.3032C357.809 55.337 357.562 56.1692 356.535 56.1692H347.176C345.831 56.1692 345.09 55.7986 345.747 54.3032L368.629 1.67085C369.097 0.793103 369.383 0.149414 370.416 0.149414H374.465C375.498 0.149414 375.765 0.799605 376.259 1.67085L399.141 54.3032C399.791 55.7986 399.05 56.1692 397.712 56.1692H388.353C387.32 56.1692 387.053 55.337 386.611 54.3032L372.444 22.1581Z" fill="white"/>
<path fill-rule="evenodd" clip-rule="evenodd" d="M145.829 0H170.992C180.741 0 188.617 8.1468 188.617 18.2051C188.642 21.75 187.632 25.225 185.711 28.2037C183.79 31.1824 181.042 33.5352 177.803 34.9734L190.801 54.3358C191.113 55.8312 190.242 56.2018 188.903 56.2018H179.064C178.031 56.2018 177.634 55.2136 177.01 54.3358L164.597 36.3908H156.487V55.012C156.485 55.3299 156.358 55.6342 156.132 55.8583C155.907 56.0825 155.602 56.2084 155.284 56.2083H145.829C145.511 56.2083 145.207 56.0823 144.983 55.8579C144.759 55.6336 144.633 55.3293 144.633 55.012V1.19633C144.633 0.879046 144.759 0.574757 144.983 0.3504C145.207 0.126043 145.511 0 145.829 0ZM170.992 11.8593H156.487V24.4989H170.992C172.661 24.4989 174.261 23.8358 175.441 22.6555C176.62 21.4752 177.283 19.8743 177.283 18.2051C177.283 16.5359 176.62 14.9351 175.441 13.7548C174.261 12.5745 172.661 11.9114 170.992 11.9114V11.8593Z" fill="white"/>
<path fill-rule="evenodd" clip-rule="evenodd" d="M114.075 22.1581L99.9075 54.3032C99.4396 55.337 99.1992 56.1692 98.1658 56.1692H88.8075C87.4687 56.1692 86.7278 55.7986 87.3777 54.3032L110.267 1.67085C110.735 0.793103 111.021 0.149414 112.054 0.149414H116.103C117.136 0.149414 117.403 0.799605 117.89 1.67085L140.779 54.3032C141.429 55.7986 140.688 56.1692 139.343 56.1692H129.978C128.951 56.1692 128.678 55.337 128.243 54.3032L114.069 22.1581H114.075Z" fill="white"/>
<path fill-rule="evenodd" clip-rule="evenodd" d="M64.6187 11.8593H47.7216C46.9027 11.8593 46.3828 11.3197 46.7858 10.3509L50.7371 1.19633C50.9321 0.728203 51.426 1.28561e-10 52.0889 1.28561e-10H91.4915C91.8093 -4.64402e-06 92.1141 0.125831 92.3394 0.350003C92.5646 0.574175 92.6921 0.87845 92.6938 1.19633V10.663C92.6921 10.9809 92.5646 11.2852 92.3394 11.5093C92.1141 11.7335 91.8093 11.8593 91.4915 11.8593H76.4726V54.9795C76.4709 55.2974 76.3435 55.6017 76.1182 55.8258C75.8929 56.05 75.5881 56.1758 75.2703 56.1758H65.8145C65.4973 56.1758 65.1932 56.0498 64.9689 55.8254C64.7447 55.6011 64.6187 55.2968 64.6187 54.9795V11.8593Z" fill="white"/>
<path fill-rule="evenodd" clip-rule="evenodd" d="M17.872 11.8593C16.5477 11.8982 15.2892 12.4459 14.3579 13.3886C13.4265 14.3313 12.8938 15.5967 12.8704 16.9219C12.847 18.2472 13.3346 19.5306 14.2321 20.5057C15.1296 21.4807 16.3679 22.0726 17.69 22.1582H30.5448C35.0538 22.1479 39.3822 23.93 42.5778 27.1124C45.7734 30.2949 47.5745 34.617 47.5848 39.128C47.5952 43.639 45.8139 47.9694 42.6329 51.1665C39.4519 54.3636 35.1318 56.1655 30.6228 56.1758H1.2479C0.429041 56.1758 -0.162374 55.4801 0.0520885 54.9795L3.95141 45.5128C4.03328 45.2021 4.20539 44.9225 4.44599 44.7096C4.68659 44.4967 4.9849 44.3599 5.30319 44.3165H30.6488C32.0139 44.3165 33.3231 43.7739 34.2884 42.8082C35.2536 41.8425 35.7959 40.5327 35.7959 39.167C35.7959 37.8013 35.2536 36.4915 34.2884 35.5258C33.3231 34.5601 32.0139 34.0176 30.6488 34.0176H17.9045C13.3955 34.0176 9.07126 32.2256 5.88295 29.0358C2.69463 25.8461 0.903459 21.5198 0.903459 17.0088C0.903459 12.4978 2.69463 8.17153 5.88295 4.98176C9.07126 1.792 13.3955 0 17.9045 0H45.1673C45.8172 0 46.467 0.461628 46.2136 1.19633L42.1583 10.663C42.0696 10.9997 41.874 11.2984 41.6009 11.5142C41.3278 11.73 40.992 11.8511 40.6441 11.8593H17.898H17.872Z" fill="white"/>
<path fill-rule="evenodd" clip-rule="evenodd" d="M239.308 70.9997L229.949 52.2744H248.354L239.308 70.9997Z" fill="#32FEFF"/>
</g>
<defs>
<clipPath id="clip0">
<rect width="448" height="71" fill="white"/>
</clipPath>
</defs>
</svg>
